<svg xmlns="http://www.w3.org/2000/svg" viewBox="0 0 400 400">
  <path fill="#000000" d="M167.156 95.575c-26.536 13.842-20.774 84.452 6.89 84.42 27.218-.031 33.716-68.164 7.997-83.847-4.667-2.845-10.128-3.056-14.887-.573m59.566 8.787c-27.363 16.403-21.887 86.018 6.514 82.817 25.87-2.916 33.815-67.254 10.196-82.568-6.411-4.158-10.097-4.213-16.71-.249m-113.597 37.537c-21.388 10.742-19.691 53.547 2.596 65.493 27.55 14.766 44.032-36.389 19.598-60.823-6.597-6.597-14.885-8.341-22.194-4.67m161.25 13.966c-26.232 14.094-27.131 71.635-1.12 71.635 22.699 0 38.08-41.538 24.441-66.004-3.918-7.028-15.512-9.827-23.321-5.631M181.526 187.5c-8.909 1.886-16.225 8.461-24.143 21.699-6.24 10.433-15.019 17.839-30.466 25.7-18.901 9.618-21.305 13-21.258 29.896.085 30.331 22.579 41.35 65.499 32.084 5.106-1.103 9.798-2.323 10.427-2.711 3.529-2.181 28.457-.308 37.837 2.842 23.852 8.011 55.262 1.896 62.539-12.176 8.406-16.257 3.156-29.826-17.002-43.946-13.293-9.311-19.392-15.342-28.001-27.69-16.464-23.614-31.768-30.709-55.432-25.698"/>
</svg>
