<svg xmlns="http://www.w3.org/2000/svg" viewBox="0 0 400 400">
  <path fill="#000000" d="M137.109 48.957c-8.777 4.638-8.166-1.826-8.186 86.62l-.017 76.592 1.758 3.475c1.028 2.032 3.165 4.454 5.145 5.83l3.388 2.354h250.256l3.397-1.945c1.979-1.132 4.181-3.281 5.273-5.146l1.877-3.202v-77.9c0-65.536-.175-78.235-1.102-80.01-1.255-2.402-4.722-5.796-7.245-7.092-3.656-1.878-198.955-1.173-200.673.725-1.869 2.066-1.871 6.448-.002 8.512 1.439 1.591 1.889 1.6 92.263 1.797l90.818.199-52.674 36.718c-28.971 20.196-53.557 37.055-54.636 37.466-3.185 1.212-3.788.827-58.831-37.52L155.29 59.766l8.358-.391c9.343-.437 10.571-1.134 10.571-6.009 0-5.374-1.132-5.714-18.946-5.678-12.889.025-16.254.26-18.164 1.269m58.071 54.155c37.974 26.423 46.164 32.433 45.313 33.247-.572.547-22.134 15.666-47.915 33.598a88310.412 88310.412 0 0 0-49.023 34.111l-2.149 1.507V65.492l3.711 2.683c2.041 1.476 24.569 17.197 50.063 34.937m192.914 67.181-.203 35.254-20.257-14.102c-21.69-15.099-23.574-15.974-27.009-12.539-5.019 5.019-3.608 6.767 17.059 21.133l16.803 11.68H264.821c-60.353 0-109.331-.299-108.923-.665.409-.366 22.316-15.669 48.683-34.007l47.939-33.343 4.238 1.585c5.499 2.058 11.066 2.028 15.98-.086l3.888-1.673 3.288 2.33c43.121 30.541 45.244 31.616 48.222 24.425 1.908-4.605.871-5.65-20.237-20.4-10.852-7.583-19.625-14.087-19.497-14.453.128-.367 22.565-16.217 49.861-35.224l49.628-34.558.203 34.694c.112 19.082.112 50.559 0 69.949M46.314 76.496C32.716 79.96 15.865 99.62 7.11 122.233c-17.431 45.024-.849 107.653 41.861 158.11 40.211 47.506 107.242 78.234 156.798 71.878 10.203-1.308 14.102-6.506 8.693-11.588l-1.944-1.826-8.928 1.028c-45.749 5.27-107.9-23.902-145.259-68.18-31.354-37.159-50.476-89.528-45.158-123.668 3.873-24.861 22.169-55.149 35.582-58.904 10.479-2.934 13.566-1.142 35.438 20.565 27.605 27.395 27.809 29.015 5.776 45.702-19.41 14.699-22.391 19.032-22.391 32.541 0 30.396 71.695 100.697 99.708 97.769 11.406-1.192 16.789-4.977 27.724-19.495 19.477-25.857 20.267-25.807 48.849 3.078 20.967 21.19 22.89 24.586 19.846 35.054-1.969 6.775-11.504 15.699-25.522 23.886-5.436 3.174-6.152 4.084-6.152 7.818 0 14.356 36.059-7.164 42.974-25.647 6.458-17.261 3.019-24.713-23.739-51.442-23.194-23.169-23.456-23.343-35.25-23.356-12.444-.013-15.349 2.065-30.016 21.475-14.159 18.738-19.595 20.232-36.13 9.931-24.108-15.02-45.209-35.727-61.567-60.416-13.585-20.504-12.619-24.447 10.233-41.753 19.31-14.624 23.552-24.626 16.754-39.511-3.356-7.35-39.248-42.911-46.931-46.499-5.811-2.714-16.158-3.787-22.045-2.287"/>
</svg>
