<svg xmlns="http://www.w3.org/2000/svg" viewBox="0 0 400 400">
  <path fill="#000000" d="M87.495.73C76.487 4.078 74.219 8.821 74.219 28.491v14.478H56.414c-30.728 0-43.953 7.472-48.555 27.433-1.437 6.235-1.091 293.865.361 299.551 3.062 11.992 11.171 22.375 21.176 27.113l5.37 2.543h330.468l5.37-2.543c10.005-4.738 18.114-15.121 21.176-27.113 1.452-5.686 1.798-293.316.361-299.551-4.602-19.961-17.827-27.433-48.555-27.433h-17.805V28.491c0-26.2-2.096-27.969-33.593-28.352-33.131-.403-34.376.58-34.375 27.174v15.656H142.188V27.313c0-19.302-1.215-22.618-9.556-26.104C129.493-.102 91.555-.505 87.495.73m35.161 44.973v26.172H96.094V19.531h26.562v26.172m182.813 0v26.172h-28.906V19.531h28.906v26.172M74.223 69.336c.013 18.394 6.449 22.461 35.543 22.461 27.827 0 32.422-2.986 32.422-21.069v-7.447h115.625v7.447c0 18.083 4.594 21.069 32.421 21.069 29.094 0 35.53-4.067 35.543-22.461l.004-6.055h17.617c29.974 0 30.04.094 30.04 43.111v27.983H26.563v-27.983c-.001-31.315.323-33.858 4.861-38.158 5.047-4.783 5.576-4.887 25.021-4.921l17.774-.032.004 6.055M373.259 259.18c-.193 94.953-.33 104.799-1.503 107.855-2.159 5.628-5.225 9.326-9.498 11.455l-3.971 1.979H41.713l-3.971-1.979c-4.273-2.129-7.339-5.827-9.498-11.455-1.173-3.056-1.31-12.902-1.503-107.855l-.212-104.492h346.942l-.212 104.492m-184.158-78.233c-1.737 1.462-5.524 8.37-13.349 24.356-6.008 12.274-11.032 22.425-11.164 22.557-.133.133-11.573 1.949-25.422 4.036-27.473 4.139-28.45 4.45-30.438 9.673-2.391 6.283-3.427 4.976 29.322 36.971l7.971 7.788-4.255 23.438c-5.394 29.705-5.367 31.381.564 34.448 4.762 2.463 7.962 1.349 31.24-10.872l21.617-11.348 21.641 11.316c23.899 12.498 26.734 13.441 31.461 10.469 5.588-3.513 5.603-4.323.575-32.555l-4.471-25.104 10.42-10.052a63681.57 63681.57 0 0 1 17.717-17.084c10.491-10.108 12.071-14.596 7.125-20.23-2.823-3.215-.843-2.744-29.997-7.137-12.864-1.939-23.504-3.64-23.645-3.781-.14-.141-5.332-10.5-11.536-23.02-9.556-19.283-11.674-23.004-13.855-24.334-3.735-2.277-8.491-2.085-11.521.465m14.602 47.539c9.726 19.481 7.447 17.854 29.237 20.867l17.5 2.42-12.134 11.724c-6.674 6.448-12.816 12.967-13.65 14.487l-1.516 2.763 2.968 17.484c1.633 9.616 2.777 17.676 2.542 17.91-.234.235-7.106-3.147-15.27-7.515-19.704-10.541-16.974-10.615-38.365 1.028-7.511 4.088-13.719 7.368-13.794 7.288-.076-.08 1.047-7.001 2.496-15.379 1.448-8.379 2.656-17.168 2.684-19.532l.05-4.297-13.295-12.972-13.296-12.972 17.562-2.434c21.998-3.05 19.714-1.429 29.511-20.94 4.394-8.751 8.169-15.912 8.388-15.913.22-.002 3.992 7.191 8.382 15.983"/>
</svg>
