<svg xmlns="http://www.w3.org/2000/svg" viewBox="0 0 512 512" stroke="#111111">
  <path stroke="#111111" d="M512 304.021c0-12.821-5.099-24.768-13.867-33.6 9.963-10.901 15.019-25.536 13.632-40.725-2.475-27.115-26.923-48.363-55.616-48.363H324.395c6.485-19.819 16.939-56.149 16.939-85.333 0-46.272-39.317-85.333-64-85.333-22.165 0-38.016 12.459-38.677 12.992A10.682 10.682 0 0 0 234.668 32v72.32l-61.44 133.141-2.56 1.28v-4.075c0-5.888-4.779-10.667-10.667-10.667H53.333C23.936 224 0 247.936 0 277.333V448c0 29.397 23.936 53.333 53.333 53.333h64c23.083 0 42.773-14.72 50.219-35.243 17.749 9.131 41.643 13.931 56.469 13.931H419.84c23.232 0 43.541-15.68 48.32-37.269 2.453-11.115 1.024-22.315-3.84-32.043 15.744-7.936 26.347-24.171 26.347-42.688 0-7.552-1.728-14.784-5.013-21.333C501.397 338.752 512 322.517 512 304.021zM149.333 448c0 17.643-14.379 32-32 32h-64c-17.664 0-32-14.357-32-32V277.333c0-17.643 14.357-32 32-32v.107h95.957v10.667c0 .064.043.107.043.171V448zm317.654-117.632a10.607 10.607 0 0 0-8.896 7.211c-1.301 3.925-.235 8.277 2.795 11.115 5.44 5.141 8.427 12.011 8.427 19.349 0 13.44-10.155 24.768-23.637 26.304a10.607 10.607 0 0 0-8.896 7.211c-1.301 3.925-.235 8.277 2.795 11.115 7.04 6.635 9.856 15.936 7.744 25.472-2.624 11.883-14.187 20.523-27.499 20.523H224c-15.851 0-41.365-6.848-53.333-15.744V262.656l15.381-7.68a10.789 10.789 0 0 0 4.907-5.077l64-138.667c.64-1.387.981-2.923.981-4.459V37.909c4.437-2.453 12.139-5.803 21.333-5.803 11.691 0 42.667 29.077 42.667 64 0 37.525-20.416 91.669-20.629 92.203-1.237 3.264-.811 6.955 1.195 9.835a10.698 10.698 0 0 0 8.789 4.608h146.795c17.792 0 32.896 12.715 34.389 28.971 1.131 12.16-4.672 23.723-15.168 30.187-3.285 2.005-5.205 5.653-5.056 9.493.128 3.84 2.347 7.296 5.781 9.067 9.003 4.608 14.592 13.653 14.592 23.595-.021 13.439-10.176 24.767-23.637 26.303z"/>
</svg>
