<svg xmlns="http://www.w3.org/2000/svg" viewBox="0 0 512 512" fill="#000000">
  <path d="M365.693 83.649h-3.959c-5.632 0-10.199 4.567-10.199 10.199s4.566 10.199 10.199 10.199h3.959c5.632 0 10.199-4.567 10.199-10.199s-4.567-10.199-10.199-10.199zm-50.627 0H149.023c-5.633 0-10.199 4.567-10.199 10.199s4.566 10.199 10.199 10.199h166.043c5.632 0 10.199-4.567 10.199-10.199s-4.567-10.199-10.199-10.199zm50.627 60.408h-216.67c-5.633 0-10.199 4.567-10.199 10.199s4.566 10.199 10.199 10.199h216.671c5.632 0 10.199-4.567 10.199-10.199s-4.568-10.199-10.2-10.199zm0 60.41h-216.67c-5.633 0-10.199 4.567-10.199 10.199s4.566 10.199 10.199 10.199h216.671c5.632 0 10.199-4.567 10.199-10.199s-4.568-10.199-10.2-10.199z"/>
  <path d="M511.981 212.03a10.18 10.18 0 0 0-4.088-8.181l-64.014-47.67V28.021c0-5.632-4.567-10.199-10.199-10.199H81.037c-5.633 0-10.199 4.567-10.199 10.199v126.137L4.108 203.85a10.186 10.186 0 0 0-4.088 8.177.225.225 0 0 0-.02.003v271.95c0 5.632 4.566 10.199 10.199 10.199h491.602c5.632 0 10.199-4.567 10.199-10.199V212.03h-.019zm-68.103-30.418 39.409 29.348-39.409 22.806v-52.154zM91.236 38.22H423.48v207.352L256 342.496 91.236 247.144V38.22zM70.838 179.59v55.748L28.713 210.96l42.125-31.37zm-50.44 50.126 144.797 83.797L20.398 458.31V229.716zm13.38 244.064 149.691-149.692 67.423 39.019c1.555.9 3.288 1.351 5.024 1.366.029 0 .056.005.084.005s.055-.005.082-.005a10.164 10.164 0 0 0 5.026-1.366l67.423-39.019 149.69 149.692H33.778zm457.824-15.47L346.805 313.513l144.797-83.797V458.31z"/>
</svg>
