<svg xmlns="http://www.w3.org/2000/svg" viewBox="0 0 400 408.907" fill="#000000">
  <path fill="#000000" d="M269.636 33.271c-1.559.928-8.026 6.842-14.37 13.143l-11.537 11.455-7.897-7.849c-10.528-10.465-16.149-12.515-24.091-8.788-5.507 2.584-207.3 205.146-208.884 209.68-3.238 9.27-2.585 10.332 20.877 33.903 22.801 22.907 22.771 22.887 29.705 19.64 12.512-5.861 27.222 5.814 22.666 17.989-4.254 11.366-5.352 9.347 17.658 32.47 28.729 28.87 29.669 29.007 51.136 7.484l11.701-11.731 8.593 8.38c12.136 11.835 18.555 13.067 28.076 5.386 9.229-7.444 202.616-202.104 203.936-205.278 3.702-8.901 1.141-14.918-11.602-27.255a25554.59 25554.59 0 0 1-19.732-19.126c-11.506-11.166-12.324-11.507-19.735-8.229-13.135 5.81-26.532-7.586-20.721-20.721 3.292-7.444 2.916-8.365-7.918-19.379A2557.234 2557.234 0 0 1 298.4 44.776c-12.803-13.361-20.483-16.433-28.764-11.505m24.492 31.304 15.976 15.992-.891 3.225c-6.125 22.165 14.798 43.087 36.955 36.953l3.225-.893 16.192 16.188 16.193 16.188-99.998 100.05-99.999 100.049-6.269-6.73c-3.448-3.702-6.272-6.914-6.275-7.137-.004-.224 31.683-32.094 70.414-70.824l70.42-70.416 2.364 2.265c7.344 7.035 18.185-.904 13.529-9.908-.638-1.235-1.753-2.737-2.477-3.338-1.174-.974-.535-1.884 5.931-8.443 9.691-9.831 11.315-13.422 9.655-21.345-.746-3.556-2.148-5.178-20.342-23.521-23.434-23.627-23.725-23.821-30.472-20.379-13.544 6.909-28.135-7.076-21.844-20.939 2.945-6.49 2.386-8.424-4.447-15.398l-6.048-6.174 10.693-10.728c5.881-5.901 10.883-10.729 11.116-10.729.233 0 7.613 7.196 16.399 15.992m-66.311 1.214c10.158 10.642 9.995 10.478 17.437 17.537 5.635 5.345 5.719 5.485 4.936 8.217-6.235 21.738 11.228 41.388 33.873 38.113l6.906-.998 15.634 15.631c8.599 8.596 15.642 16.007 15.65 16.469.008.461-26.86 27.607-59.705 60.324C164.354 318.89 148.347 334.884 135.434 348.1l-12.339 12.629-16.232-16.225-16.231-16.225.935-4.362c4.764-22.211-12.536-40.238-34.982-36.452l-5.781.976-16.093-16.078-16.094-16.079 78.695-78.698 78.695-78.698 2.784 1.164c6.102 2.549 10.683-.595 10.683-7.333 0-2.4-.406-4.615-.901-4.921-.793-.49 28.821-31.118 30.089-31.118.253 0 4.373 4.099 9.155 9.109m-32.48 39.282c-4.362 3.664-3.891 9.129 1.222 14.158 8.98 8.832 17.099 6.531 17.197-4.875.053-6.123-13.843-13.127-18.419-9.283m23.879 24.108c-7.108 4.83 1.446 19.809 11.312 19.809 10.639 0 7.582-17.188-3.726-20.947-3.774-1.255-4.146-1.199-7.586 1.138m23.894 23.665c-4.362 3.664-3.891 9.129 1.222 14.158 8.98 8.833 17.099 6.532 17.198-4.874.053-6.124-13.844-13.128-18.42-9.284m24.014 23.904c-6.685 4.493-1.402 16.858 8.259 19.33 9.472 2.425 13.432-8.268 5.791-15.639-5.804-5.599-9.692-6.62-14.05-3.691"/>
</svg>
